<svg width="2478" height="400" viewBox="0 0 2478 400" fill="none" xmlns="http://www.w3.org/2000/svg">
<path d="M835.294 342.641H729.923C707.949 342.641 689.289 334.968 673.941 319.586C658.56 304.239 650.886 285.544 650.886 263.605V163.71C650.886 143.495 658.256 123.786 672.15 109.081C687.835 92.5164 707.104 84.2003 729.923 84.2003H914.33V128.756L862.034 213.201H861.662V136.497H729.923C722.689 136.497 716.502 139.066 711.33 144.238C706.158 149.411 703.589 155.597 703.589 162.831V263.571C703.589 270.805 706.158 276.992 711.33 282.164C716.502 287.336 722.689 289.905 729.923 289.905H835.294C842.528 289.905 848.715 287.336 853.887 282.164C859.059 276.992 861.628 270.805 861.628 263.571H914.33C914.33 285.511 906.657 304.171 891.275 319.552C875.894 334.968 857.234 342.641 835.294 342.641Z" fill="#2B2B2B"/>
<path d="M1129.74 342.641H1024.37C1002.39 342.641 983.733 334.968 968.385 319.586C953.004 304.239 945.33 285.544 945.33 263.605V163.71C945.33 143.495 952.699 123.786 966.593 109.081C982.279 92.5164 1001.55 84.2003 1024.37 84.2003H1129.74C1151.68 84.2003 1170.34 91.8741 1185.72 107.256C1201.07 122.637 1208.77 141.162 1208.77 162.865V263.605C1208.77 285.544 1201.1 304.205 1185.72 319.586C1170.34 334.968 1151.68 342.641 1129.74 342.641ZM1129.74 289.939C1136.97 289.939 1143.16 287.37 1148.33 282.198C1153.5 277.025 1156.07 270.839 1156.07 263.605V162.865C1156.07 155.631 1153.5 149.444 1148.33 144.272C1143.16 139.1 1136.97 136.531 1129.74 136.531H1024.37C1017.13 136.531 1010.95 139.1 1005.77 144.272C1000.6 149.444 998.032 155.631 998.032 162.865V263.605C998.032 270.839 1000.6 277.025 1005.77 282.198C1010.95 287.37 1017.13 289.939 1024.37 289.939H1129.74Z" fill="#2B2B2B"/>
<path d="M1479.18 342.641L1292.44 193.493V342.641H1239.74V84.2341L1426.07 233.011L1426.48 84.2341H1479.18V342.641Z" fill="#2B2B2B"/>
<path d="M1668.25 342.641H1615.55V136.531H1510.18V84.2341H1773.63V136.531H1668.25V342.641Z" fill="#2B2B2B"/>
<path d="M1857.33 342.641H1804.63V84.2341H1857.33V342.641Z" fill="#2B2B2B"/>
<path d="M2041.74 342.641L1880.55 84.2341H1942.55L2041.74 243.085L2140.51 84.2341H2202.51L2041.74 342.641Z" fill="#2B2B2B"/>
<path d="M2477.59 342.641H2214.14V84.2341H2477.59V136.531H2266.81V186.901H2424.88V239.603H2266.81V289.973H2477.59V342.641Z" fill="#2B2B2B"/>
<path d="M276.02 70.4416L310.738 90.4881C315.944 93.4968 322.333 93.4968 327.539 90.4881L357.186 73.3827C368.376 66.9259 368.376 50.7332 357.186 44.2764L339.27 33.932L284.404 2.2565C279.198 -0.752167 272.808 -0.752167 267.602 2.2565L25.185 142.21C13.9955 148.667 13.9955 164.86 25.185 171.316L267.569 311.27C272.775 314.279 279.164 314.279 284.37 311.27L526.787 171.316C537.977 164.86 537.977 148.667 526.787 142.21L454.038 100.19C448.832 97.1816 442.443 97.1816 437.237 100.19L407.59 117.296C396.4 123.753 396.4 139.945 407.59 146.402L425.473 156.746L275.986 243.051L126.499 156.746L276.02 70.4416Z" fill="#2B2B2B"/>
<path d="M552.04 213.404V247.649C552.04 253.666 548.828 259.21 543.656 262.185L503.63 285.308L309.453 397.406C298.264 403.863 284.234 395.783 284.234 382.87V348.625C284.234 342.608 287.446 337.064 292.652 334.089L526.821 198.868C538.044 192.411 552.04 200.49 552.04 213.404Z" fill="#1FCCD2"/>
<path d="M267.67 347.746V383.174C267.67 396.122 253.607 404.201 242.417 397.71L8.3499 261.475C3.1777 258.467 0 252.923 0 246.939V212.593C0 199.645 13.9953 191.566 25.2187 198.057L214.258 307.18L259.32 333.21C264.458 336.185 267.67 341.729 267.67 347.746Z" fill="#1FCCD2"/>
<path d="M276.02 120.203L212.736 156.746L276.02 193.256L339.269 156.746L276.02 120.203Z" fill="#1FCCD2"/>
<path d="M1104.42 186.056H1049.69V240.786H1104.42V186.056Z" fill="#1FCCD2"/>
<path d="M1858.34 4.52148H1803.61V59.2522H1858.34V4.52148Z" fill="#1FCCD2"/>
</svg>
